  <svg xmlns="http://www.w3.org/2000/svg" width="30" height="30" viewBox="0 0 30 30" fill="none">
<path d="M19.8733 16.5358L19.868 16.5335C19.7888 16.5001 19.7125 16.4613 19.6325 16.4296C20.5254 15.7298 21.2475 14.8362 21.7443 13.8164C22.2411 12.7966 22.4996 11.6771 22.5002 10.5427C22.4973 10.2791 22.4786 10.016 22.4443 9.75461C22.4635 9.70492 22.4793 9.65399 22.4916 9.60217L22.8432 6.60535C22.9526 5.65848 22.698 4.70541 22.1311 3.93921C21.5641 3.173 20.7271 2.65094 19.7896 2.47876L18.8021 2.29931C16.2885 1.84033 13.7125 1.84033 11.1989 2.29931L10.2102 2.47876C9.2728 2.65107 8.43594 3.17319 7.86907 3.93938C7.30221 4.70557 7.04772 5.65856 7.15715 6.60535L7.50872 9.60217C7.52103 9.65401 7.53683 9.70496 7.55602 9.75467C7.52171 10.016 7.50306 10.2792 7.50016 10.5427C7.50079 11.6771 7.75926 12.7965 8.25606 13.8164C8.75285 14.8362 9.47497 15.7298 10.3678 16.4295C10.2878 16.4612 10.2116 16.5 10.1324 16.5334L10.127 16.5358C8.08053 17.3958 6.30158 18.7881 4.9749 20.5679C3.64822 22.3478 2.82218 24.4503 2.58257 26.6572C2.54663 26.9868 2.64309 27.3172 2.85072 27.5756C3.05836 27.8341 3.36016 27.9995 3.68974 28.0354C4.01932 28.0713 4.34967 27.9749 4.60813 27.7672C4.86659 27.5596 5.03198 27.2578 5.06792 26.9282C5.2438 25.3059 5.81655 23.7519 6.73557 22.4035C7.65459 21.0551 8.89157 19.9539 10.3372 19.197L14.1164 22.9762C14.2325 23.0923 14.3702 23.1844 14.5219 23.2472C14.6735 23.3101 14.8361 23.3424 15.0002 23.3424C15.1643 23.3424 15.3269 23.3101 15.4785 23.2472C15.6302 23.1844 15.768 23.0923 15.884 22.9762L19.6631 19.197C21.1088 19.9539 22.3458 21.0552 23.2648 22.4036C24.1838 23.752 24.7565 25.306 24.9324 26.9283C24.9658 27.2342 25.1108 27.5171 25.3398 27.7227C25.5687 27.9284 25.8655 28.0423 26.1733 28.0428C26.2191 28.0427 26.265 28.0403 26.3106 28.0354C26.6402 27.9995 26.942 27.8341 27.1496 27.5756C27.3572 27.3172 27.4537 26.9868 27.4178 26.6573C27.1782 24.4503 26.3521 22.3478 25.0254 20.5679C23.6988 18.7881 21.9198 17.3958 19.8733 16.5358ZM9.64005 6.3136C9.60365 5.99809 9.68849 5.68053 9.8774 5.42522C10.0663 5.16991 10.3452 4.99591 10.6576 4.93847L11.6457 4.75903C13.8637 4.35376 16.1367 4.35376 18.3547 4.75903L19.3422 4.93847C19.6547 4.99578 19.9337 5.16971 20.1227 5.42504C20.3117 5.68037 20.3967 5.998 20.3603 6.3136L20.1381 8.2063H9.86223L9.64005 6.3136ZM15.0002 20.3248L12.9373 18.262C14.297 17.9696 15.7033 17.9696 17.063 18.262L15.0002 20.3248ZM15.0002 15.5427C13.7028 15.5412 12.4568 15.0361 11.5245 14.1339C10.5923 13.2317 10.0467 12.0029 10.0027 10.7063H19.9978C19.9538 12.0029 19.4082 13.2318 18.4759 14.134C17.5436 15.0362 16.2975 15.5412 15.0002 15.5427Z" fill="#E10102"/>
</svg>