<svg width="309" height="348" viewBox="0 0 309 348" fill="none" xmlns="http://www.w3.org/2000/svg">
<g clip-path="url(#clip0_1_4)">
<path d="M114.139 113.862C102.636 113.862 91.4017 115.558 80.7227 118.782V214.056C83.2958 212.091 85.667 209.774 87.786 207.121C94.1765 199.078 103.779 194.46 114.139 194.46C132.553 194.46 147.538 209.22 147.538 227.338V307.684C147.538 329.949 165.616 347.983 187.899 347.983C210.182 347.983 228.26 329.933 228.26 307.684V227.338C228.26 164.773 177.052 113.862 114.122 113.862H114.139Z" fill="#F7B940"/>
<path d="M31.0783 213.653C13.622 199.817 10.6958 174.462 24.5532 157.032C39.2178 138.579 58.7931 125.431 80.7396 118.799V40.2992C80.7228 18.0339 62.661 0 40.3614 0C18.0617 0 0 18.0339 0 40.2992V307.684C0 329.949 18.0785 347.983 40.3614 347.983C62.6442 347.983 80.7228 329.933 80.7228 307.684V214.056C66.3776 225.054 45.8774 225.373 31.0783 213.636V213.653Z" fill="#87A67E"/>
<path d="M24.5532 157.032C10.6958 174.462 13.622 199.817 31.0783 213.653C45.8774 225.39 66.3777 225.071 80.7228 214.072V118.799C58.7931 125.431 39.201 138.579 24.5364 157.032H24.5532Z" fill="#606060"/>
<path d="M268.622 194.46C290.913 194.46 308.983 176.418 308.983 154.161C308.983 131.904 290.913 113.862 268.622 113.862C246.331 113.862 228.26 131.904 228.26 154.161C228.26 176.418 246.331 194.46 268.622 194.46Z" fill="#606060"/>
</g>
<defs>
<clipPath id="clip0_1_4">
<rect width="309" height="348" fill="white"/>
</clipPath>
</defs>
</svg>
