 <svg xmlns="http://www.w3.org/2000/svg" width="30" height="30" viewBox="0 0 30 30" fill="none">
<path d="M22.4999 8.75H19.7374C19.4967 7.83974 19.0712 6.98876 18.4874 6.25H22.4999C22.8314 6.25 23.1494 6.1183 23.3838 5.88388C23.6182 5.64946 23.7499 5.33152 23.7499 5C23.7499 4.66848 23.6182 4.35054 23.3838 4.11612C23.1494 3.8817 22.8314 3.75 22.4999 3.75H8.74991C8.41839 3.75 8.10044 3.8817 7.86602 4.11612C7.6316 4.35054 7.49991 4.66848 7.49991 5C7.49991 5.33152 7.6316 5.64946 7.86602 5.88388C8.10044 6.1183 8.41839 6.25 8.74991 6.25H13.1249C13.9502 6.2529 14.7579 6.48917 15.4546 6.93154C16.1513 7.37391 16.7087 8.00433 17.0624 8.75H8.74991C8.41839 8.75 8.10044 8.8817 7.86602 9.11612C7.6316 9.35054 7.49991 9.66848 7.49991 10C7.49991 10.3315 7.6316 10.6495 7.86602 10.8839C8.10044 11.1183 8.41839 11.25 8.74991 11.25H17.4999C17.3501 12.2883 16.8321 13.2381 16.0406 13.9264C15.249 14.6148 14.2364 14.9958 13.1874 15H8.74991C8.69172 14.9942 8.63309 14.9942 8.57491 15C8.49207 14.9871 8.40774 14.9871 8.32491 15C8.2397 15.029 8.15957 15.0712 8.08741 15.125L7.93741 15.2125C7.86894 15.2743 7.80997 15.3459 7.76241 15.425C7.72054 15.4804 7.68293 15.5389 7.64991 15.6C7.63878 15.6746 7.63878 15.7504 7.64991 15.825C7.56083 15.9497 7.50883 16.097 7.49991 16.25C7.49406 16.3082 7.49406 16.3668 7.49991 16.425C7.48701 16.5078 7.48701 16.5922 7.49991 16.675C7.52893 16.7602 7.5711 16.8403 7.62491 16.9125C7.62491 16.9125 7.62491 17.0125 7.71241 17.0625L15.2124 25.8125C15.4279 26.0645 15.7346 26.2205 16.0652 26.2463C16.3957 26.2721 16.723 26.1655 16.9749 25.95C17.2269 25.7345 17.3829 25.4278 17.4087 25.0972C17.4345 24.7667 17.3279 24.4395 17.1124 24.1875L11.4749 17.5H13.1249C14.845 17.5071 16.5052 16.8692 17.778 15.7121C19.0508 14.5551 19.8436 12.963 19.9999 11.25H22.4999C22.8314 11.25 23.1494 11.1183 23.3838 10.8839C23.6182 10.6495 23.7499 10.3315 23.7499 10C23.7499 9.66848 23.6182 9.35054 23.3838 9.11612C23.1494 8.8817 22.8314 8.75 22.4999 8.75Z" fill="#FFA001"/>
</svg>