<svg width="14" height="14" viewBox="0 0 14 14" fill="none" xmlns="http://www.w3.org/2000/svg">
<path d="M12.8334 5.64083C12.7965 5.53413 12.7295 5.44041 12.6405 5.37104C12.5514 5.30166 12.4442 5.25962 12.3317 5.24999L9.01253 4.76583L7.52503 1.74999C7.47726 1.65137 7.40268 1.56819 7.30983 1.50999C7.21698 1.4518 7.10961 1.42093 7.00003 1.42093C6.89044 1.42093 6.78308 1.4518 6.69023 1.50999C6.59737 1.56819 6.52279 1.65137 6.47503 1.74999L4.98753 4.75999L1.66836 5.24999C1.5604 5.26534 1.4589 5.31064 1.37538 5.38075C1.29186 5.45087 1.22967 5.54299 1.19586 5.64666C1.16491 5.74797 1.16213 5.85579 1.18783 5.95856C1.21352 6.06133 1.26671 6.15517 1.34169 6.22999L3.75086 8.56333L3.16753 11.8767C3.1467 11.986 3.15761 12.0991 3.19895 12.2024C3.2403 12.3058 3.31036 12.3952 3.40086 12.46C3.48907 12.5231 3.59311 12.5603 3.70131 12.5675C3.8095 12.5747 3.91756 12.5516 4.01336 12.5008L7.00003 10.9433L9.97503 12.5067C10.0569 12.5528 10.1494 12.577 10.2434 12.5767C10.3669 12.5771 10.4874 12.5383 10.5875 12.4658C10.678 12.401 10.7481 12.3116 10.7894 12.2083C10.8308 12.1049 10.8417 11.9919 10.8209 11.8825L10.2375 8.56916L12.6467 6.23583C12.7309 6.16447 12.7932 6.07069 12.8262 5.96536C12.8593 5.86004 12.8617 5.7475 12.8334 5.64083Z" fill="#FFA001"/>
</svg>
